<mxfile host="app.diagrams.net" agent="Mozilla/5.0 (Windows NT 10.0; Win64; x64) AppleWebKit/537.36 (KHTML, like Gecko) Chrome/129.0.0.0 Safari/537.36" version="24.7.17">
  <diagram name="Page-1" id="CxPzl8KRkPQJvWtMax8s">
    <mxGraphModel dx="1009" dy="1732" grid="1" gridSize="10" guides="1" tooltips="1" connect="1" arrows="1" fold="1" page="1" pageScale="1" pageWidth="827" pageHeight="1169" math="0" shadow="0">
      <root>
        <mxCell id="0" />
        <mxCell id="1" parent="0" />
        <mxCell id="nSPv71tqnzwlGmN1Kw1b-2" value="" style="rounded=0;whiteSpace=wrap;html=1;fillColor=#ffe6cc;strokeColor=#d79b00;" vertex="1" parent="1">
          <mxGeometry x="530" y="140" width="350" height="150" as="geometry" />
        </mxCell>
        <mxCell id="nSPv71tqnzwlGmN1Kw1b-1" value="&lt;b&gt;&lt;font style=&quot;font-size: 19px;&quot; color=&quot;#b5739d&quot; face=&quot;Times New Roman&quot;&gt;Demandeur&lt;/font&gt;&lt;/b&gt;" style="ellipse;whiteSpace=wrap;html=1;dashed=1;" vertex="1" parent="1">
          <mxGeometry x="50" y="100" width="170" height="70" as="geometry" />
        </mxCell>
        <mxCell id="nSPv71tqnzwlGmN1Kw1b-8" style="edgeStyle=orthogonalEdgeStyle;rounded=0;orthogonalLoop=1;jettySize=auto;html=1;exitX=0.5;exitY=1;exitDx=0;exitDy=0;entryX=1;entryY=0.5;entryDx=0;entryDy=0;" edge="1" parent="1" source="nSPv71tqnzwlGmN1Kw1b-3" target="nSPv71tqnzwlGmN1Kw1b-4">
          <mxGeometry relative="1" as="geometry" />
        </mxCell>
        <mxCell id="nSPv71tqnzwlGmN1Kw1b-12" style="edgeStyle=orthogonalEdgeStyle;rounded=0;orthogonalLoop=1;jettySize=auto;html=1;exitX=1;exitY=0.5;exitDx=0;exitDy=0;entryX=0.5;entryY=0;entryDx=0;entryDy=0;" edge="1" parent="1" source="nSPv71tqnzwlGmN1Kw1b-3" target="nSPv71tqnzwlGmN1Kw1b-1">
          <mxGeometry relative="1" as="geometry" />
        </mxCell>
        <mxCell id="nSPv71tqnzwlGmN1Kw1b-14" style="edgeStyle=orthogonalEdgeStyle;rounded=0;orthogonalLoop=1;jettySize=auto;html=1;exitX=1;exitY=0.5;exitDx=0;exitDy=0;" edge="1" parent="1" source="nSPv71tqnzwlGmN1Kw1b-15" target="nSPv71tqnzwlGmN1Kw1b-1">
          <mxGeometry relative="1" as="geometry">
            <Array as="points">
              <mxPoint x="20" y="20" />
              <mxPoint x="20" y="135" />
            </Array>
          </mxGeometry>
        </mxCell>
        <mxCell id="nSPv71tqnzwlGmN1Kw1b-3" value="&lt;b&gt;&lt;font style=&quot;font-size: 18px;&quot; face=&quot;Times New Roman&quot;&gt;Agence&lt;/font&gt;&lt;/b&gt;" style="ellipse;whiteSpace=wrap;html=1;" vertex="1" parent="1">
          <mxGeometry x="630" y="190" width="150" height="50" as="geometry" />
        </mxCell>
        <mxCell id="nSPv71tqnzwlGmN1Kw1b-10" style="edgeStyle=orthogonalEdgeStyle;rounded=0;orthogonalLoop=1;jettySize=auto;html=1;exitX=0.5;exitY=0;exitDx=0;exitDy=0;entryX=0;entryY=0.5;entryDx=0;entryDy=0;" edge="1" parent="1" source="nSPv71tqnzwlGmN1Kw1b-4" target="nSPv71tqnzwlGmN1Kw1b-3">
          <mxGeometry relative="1" as="geometry" />
        </mxCell>
        <mxCell id="nSPv71tqnzwlGmN1Kw1b-4" value="&lt;font face=&quot;Times New Roman&quot; color=&quot;#b5739d&quot;&gt;&lt;span style=&quot;font-size: 19px;&quot;&gt;&lt;b&gt;Centre de gestion&lt;/b&gt;&lt;/span&gt;&lt;/font&gt;" style="ellipse;whiteSpace=wrap;html=1;dashed=1;" vertex="1" parent="1">
          <mxGeometry x="50" y="310" width="170" height="70" as="geometry" />
        </mxCell>
        <mxCell id="nSPv71tqnzwlGmN1Kw1b-5" style="edgeStyle=orthogonalEdgeStyle;rounded=0;orthogonalLoop=1;jettySize=auto;html=1;entryX=0.5;entryY=0;entryDx=0;entryDy=0;" edge="1" parent="1" source="nSPv71tqnzwlGmN1Kw1b-1" target="nSPv71tqnzwlGmN1Kw1b-3">
          <mxGeometry relative="1" as="geometry" />
        </mxCell>
        <mxCell id="nSPv71tqnzwlGmN1Kw1b-6" value="&lt;b&gt;&lt;font color=&quot;#ff0011&quot;&gt;1- Demande d&#39;obtenir une carte guichet&lt;/font&gt;&lt;/b&gt;" style="text;html=1;align=center;verticalAlign=middle;resizable=0;points=[];autosize=1;strokeColor=none;fillColor=none;" vertex="1" parent="1">
          <mxGeometry x="350" y="100" width="250" height="30" as="geometry" />
        </mxCell>
        <mxCell id="nSPv71tqnzwlGmN1Kw1b-9" value="&lt;b&gt;&lt;font color=&quot;#ff0011&quot;&gt;2- les demandes des clients&lt;/font&gt;&lt;/b&gt;" style="text;html=1;align=center;verticalAlign=middle;resizable=0;points=[];autosize=1;strokeColor=none;fillColor=none;" vertex="1" parent="1">
          <mxGeometry x="390" y="350" width="180" height="30" as="geometry" />
        </mxCell>
        <mxCell id="nSPv71tqnzwlGmN1Kw1b-11" value="&lt;b&gt;&lt;font color=&quot;#ff0011&quot;&gt;3- Envoie la carte guichet&amp;nbsp;&lt;/font&gt;&lt;/b&gt;" style="text;html=1;align=center;verticalAlign=middle;resizable=0;points=[];autosize=1;strokeColor=none;fillColor=none;" vertex="1" parent="1">
          <mxGeometry x="280" y="210" width="170" height="30" as="geometry" />
        </mxCell>
        <mxCell id="nSPv71tqnzwlGmN1Kw1b-13" value="&lt;b&gt;&lt;font color=&quot;#ff0011&quot;&gt;4- Avis de mise à disposition&amp;nbsp;&lt;/font&gt;&lt;/b&gt;" style="text;html=1;align=center;verticalAlign=middle;resizable=0;points=[];autosize=1;strokeColor=none;fillColor=none;" vertex="1" parent="1">
          <mxGeometry x="390" y="50" width="190" height="30" as="geometry" />
        </mxCell>
        <mxCell id="nSPv71tqnzwlGmN1Kw1b-16" value="" style="edgeStyle=orthogonalEdgeStyle;rounded=0;orthogonalLoop=1;jettySize=auto;html=1;exitX=1;exitY=0.5;exitDx=0;exitDy=0;" edge="1" parent="1" source="nSPv71tqnzwlGmN1Kw1b-3" target="nSPv71tqnzwlGmN1Kw1b-15">
          <mxGeometry relative="1" as="geometry">
            <mxPoint x="780" y="215" as="sourcePoint" />
            <mxPoint x="50" y="135" as="targetPoint" />
            <Array as="points">
              <mxPoint x="780" y="230" />
              <mxPoint x="840" y="230" />
              <mxPoint x="840" y="20" />
            </Array>
          </mxGeometry>
        </mxCell>
        <mxCell id="nSPv71tqnzwlGmN1Kw1b-15" value="&lt;b&gt;&lt;font color=&quot;#ff0011&quot;&gt;5- Avis de prélèvement de la cotisation annuelle&lt;/font&gt;&lt;/b&gt;" style="text;html=1;align=center;verticalAlign=middle;resizable=0;points=[];autosize=1;strokeColor=none;fillColor=none;" vertex="1" parent="1">
          <mxGeometry x="40" y="-10" width="300" height="30" as="geometry" />
        </mxCell>
      </root>
    </mxGraphModel>
  </diagram>
</mxfile>
